<svg xmlns="http://www.w3.org/2000/svg" width="80" height="80" viewBox="0 0 80 80">
  <defs>
    <linearGradient id="g80" x1="0%" y1="0%" x2="100%" y2="100%">
      <stop offset="0%" stop-color="#185359"/>
      <stop offset="100%" stop-color="#30A5BF"/>
    </linearGradient>
    <filter id="shadow80" x="-10%" y="-10%" width="120%" height="120%">
      <feDropShadow dx="0" dy="2" stdDeviation="3" flood-color="rgba(48,165,191,0.3)"/>
    </filter>
  </defs>
  <rect width="80" height="80" rx="16" fill="url(#g80)" filter="url(#shadow80)"/>
  <!-- 2x2 grid of icon squares -->
  <rect x="12" y="12" width="24" height="24" rx="5" fill="white" opacity="0.92"/>
  <rect x="44" y="12" width="24" height="24" rx="5" fill="white" opacity="0.92"/>
  <rect x="12" y="44" width="24" height="24" rx="5" fill="white" opacity="0.92"/>
  <rect x="44" y="44" width="24" height="24" rx="5" fill="white" opacity="0.92"/>
  <!-- Mini icon lines inside each square (representing an icon) -->
  <line x1="17" y1="24" x2="31" y2="24" stroke="#30A5BF" stroke-width="2" stroke-linecap="round" opacity="0.7"/>
  <line x1="17" y1="28" x2="27" y2="28" stroke="#30A5BF" stroke-width="2" stroke-linecap="round" opacity="0.7"/>
  <line x1="49" y1="24" x2="63" y2="24" stroke="#30A5BF" stroke-width="2" stroke-linecap="round" opacity="0.7"/>
  <line x1="49" y1="28" x2="59" y2="28" stroke="#30A5BF" stroke-width="2" stroke-linecap="round" opacity="0.7"/>
  <line x1="17" y1="56" x2="31" y2="56" stroke="#30A5BF" stroke-width="2" stroke-linecap="round" opacity="0.7"/>
  <line x1="17" y1="60" x2="27" y2="60" stroke="#30A5BF" stroke-width="2" stroke-linecap="round" opacity="0.7"/>
  <line x1="49" y1="56" x2="63" y2="56" stroke="#30A5BF" stroke-width="2" stroke-linecap="round" opacity="0.7"/>
  <line x1="49" y1="60" x2="59" y2="60" stroke="#30A5BF" stroke-width="2" stroke-linecap="round" opacity="0.7"/>
</svg>
